HIERARCHY
ROOT Hips
{
	OFFSET 0.000000 97.167313 0.000000
	CHANNELS 6 Xposition Yposition Zposition Xrotation Yrotation Zrotation
	JOINT Spine
	{
		OFFSET 0.000000 13.784798 0.064400
		CHANNELS 3 Xrotation Yrotation Zrotation
		JOINT Spine1
		{
			OFFSET 0.000000 12.037903 0.404700
			CHANNELS 3 Xrotation Yrotation Zrotation
			JOINT Spine2
			{
				OFFSET 0.000000 17.795601 0.420200
				CHANNELS 3 Xrotation Yrotation Zrotation
				JOINT Neck
				{
					OFFSET 0.000000 39.131302 11.954600
					CHANNELS 3 Xrotation Yrotation Zrotation
					JOINT Head
					{
						OFFSET 0.000000 14.456192 15.627699
						CHANNELS 3 Xrotation Yrotation Zrotation
						JOINT HeadTop_End
						{
							OFFSET 0.000000 15.703506 7.603401
							CHANNELS 3 Xrotation Yrotation Zrotation
							End Site
							{
								OFFSET 0.000000 17.447403 0.000000
							}
						}
					}
				}
				JOINT LeftShoulder
				{
					OFFSET 17.399500 24.608795 1.168800
					CHANNELS 3 Xrotation Yrotation Zrotation
					JOINT LeftArm
					{
						OFFSET 18.980635 5.765305 1.818600
						CHANNELS 3 Xrotation Yrotation Zrotation
						JOINT LeftForeArm
						{
							OFFSET 49.290169 0.000000 0.000000
							CHANNELS 3 Xrotation Yrotation Zrotation
							JOINT LeftHand
							{
								OFFSET 31.562012 0.000000 0.000000
								CHANNELS 3 Xrotation Yrotation Zrotation
								JOINT LeftHandThumb1
								{
									OFFSET 6.133995 -4.388519 7.076070
									CHANNELS 3 Xrotation Yrotation Zrotation
									JOINT LeftHandThumb2
									{
										OFFSET 6.037666 -3.485840 3.485847
										CHANNELS 3 Xrotation Yrotation Zrotation
										JOINT LeftHandThumb3
										{
											OFFSET 6.496506 -3.750763 3.750761
											CHANNELS 3 Xrotation Yrotation Zrotation
											JOINT LeftHandThumb4
											{
												OFFSET 5.616882 -3.242905 3.242910
												CHANNELS 3 Xrotation Yrotation Zrotation
												End Site
												{
													OFFSET -1.254608 7.132141 0.375429
												}
											}
										}
									}
								}
								JOINT LeftHandPinky1
								{
									OFFSET 18.920792 -0.453171 -11.426712
									CHANNELS 3 Xrotation Yrotation Zrotation
									JOINT LeftHandPinky2
									{
										OFFSET 4.919586 0.000000 0.000000
										CHANNELS 3 Xrotation Yrotation Zrotation
										JOINT LeftHandPinky3
										{
											OFFSET 5.233047 0.000000 0.000000
											CHANNELS 3 Xrotation Yrotation Zrotation
											JOINT LeftHandPinky4
											{
												OFFSET 5.571716 0.000000 0.000000
												CHANNELS 3 Xrotation Yrotation Zrotation
												End Site
												{
													OFFSET -3.459808 4.342407 -0.466164
												}
											}
										}
									}
								}
								JOINT LeftHandRing1
								{
									OFFSET 22.726120 -0.094986 -6.500475
									CHANNELS 3 Xrotation Yrotation Zrotation
									JOINT LeftHandRing2
									{
										OFFSET 6.408615 0.000000 0.000000
										CHANNELS 3 Xrotation Yrotation Zrotation
										JOINT LeftHandRing3
										{
											OFFSET 6.150223 0.000000 0.000000
											CHANNELS 3 Xrotation Yrotation Zrotation
											JOINT LeftHandRing4
											{
												OFFSET 6.145386 0.000000 0.000000
												CHANNELS 3 Xrotation Yrotation Zrotation
												End Site
												{
													OFFSET -3.671402 4.923981 -0.202372
												}
											}
										}
									}
								}
								JOINT LeftHandMiddle1
								{
									OFFSET 23.373947 0.000000 0.000001
									CHANNELS 3 Xrotation Yrotation Zrotation
									JOINT LeftHandMiddle2
									{
										OFFSET 6.996567 0.000000 0.000000
										CHANNELS 3 Xrotation Yrotation Zrotation
										JOINT LeftHandMiddle3
										{
											OFFSET 7.015945 0.000000 0.000000
											CHANNELS 3 Xrotation Yrotation Zrotation
											JOINT LeftHandMiddle4
											{
												OFFSET 7.721573 0.000000 0.000000
												CHANNELS 3 Xrotation Yrotation Zrotation
												End Site
												{
													OFFSET -4.651108 6.158463 0.251582
												}
											}
										}
									}
								}
								JOINT LeftHandIndex1
								{
									OFFSET 21.310577 -0.490082 6.209344
									CHANNELS 3 Xrotation Yrotation Zrotation
									JOINT LeftHandIndex2
									{
										OFFSET 7.536453 0.000000 0.000000
										CHANNELS 3 Xrotation Yrotation Zrotation
										JOINT LeftHandIndex3
										{
											OFFSET 7.512344 0.000000 0.000000
											CHANNELS 3 Xrotation Yrotation Zrotation
											JOINT LeftHandIndex4
											{
												OFFSET 10.212402 0.000000 0.000001
												CHANNELS 3 Xrotation Yrotation Zrotation
												End Site
												{
													OFFSET -5.180801 8.690506 1.388433
												}
											}
										}
									}
								}
							}
						}
					}
				}
				JOINT RightShoulder
				{
					OFFSET -17.399500 24.608795 1.168800
					CHANNELS 3 Xrotation Yrotation Zrotation
					JOINT RightArm
					{
						OFFSET -18.980635 5.765305 1.818600
						CHANNELS 3 Xrotation Yrotation Zrotation
						JOINT RightForeArm
						{
							OFFSET -49.290169 0.000000 0.000000
							CHANNELS 3 Xrotation Yrotation Zrotation
							JOINT RightHand
							{
								OFFSET -31.562012 0.000000 0.000000
								CHANNELS 3 Xrotation Yrotation Zrotation
								JOINT RightHandThumb1
								{
									OFFSET -6.133995 -4.388519 7.076070
									CHANNELS 3 Xrotation Yrotation Zrotation
									JOINT RightHandThumb2
									{
										OFFSET -6.037666 -3.485840 3.485847
										CHANNELS 3 Xrotation Yrotation Zrotation
										JOINT RightHandThumb3
										{
											OFFSET -6.496506 -3.750763 3.750761
											CHANNELS 3 Xrotation Yrotation Zrotation
											JOINT RightHandThumb4
											{
												OFFSET -5.616882 -3.242905 3.242910
												CHANNELS 3 Xrotation Yrotation Zrotation
												End Site
												{
													OFFSET 1.254608 7.132141 0.375429
												}
											}
										}
									}
								}
								JOINT RightHandIndex1
								{
									OFFSET -21.310577 -0.490082 6.209344
									CHANNELS 3 Xrotation Yrotation Zrotation
									JOINT RightHandIndex2
									{
										OFFSET -7.536453 0.000000 0.000000
										CHANNELS 3 Xrotation Yrotation Zrotation
										JOINT RightHandIndex3
										{
											OFFSET -7.512344 0.000000 0.000000
											CHANNELS 3 Xrotation Yrotation Zrotation
											JOINT RightHandIndex4
											{
												OFFSET -10.212402 0.000000 0.000001
												CHANNELS 3 Xrotation Yrotation Zrotation
												End Site
												{
													OFFSET 5.180801 8.690506 1.388433
												}
											}
										}
									}
								}
								JOINT RightHandMiddle1
								{
									OFFSET -23.373947 0.000000 0.000001
									CHANNELS 3 Xrotation Yrotation Zrotation
									JOINT RightHandMiddle2
									{
										OFFSET -6.996567 0.000000 0.000000
										CHANNELS 3 Xrotation Yrotation Zrotation
										JOINT RightHandMiddle3
										{
											OFFSET -7.015945 0.000000 0.000000
											CHANNELS 3 Xrotation Yrotation Zrotation
											JOINT RightHandMiddle4
											{
												OFFSET -7.721573 0.000000 0.000000
												CHANNELS 3 Xrotation Yrotation Zrotation
												End Site
												{
													OFFSET 4.651108 6.158463 0.251582
												}
											}
										}
									}
								}
								JOINT RightHandRing1
								{
									OFFSET -22.726120 -0.094986 -6.500475
									CHANNELS 3 Xrotation Yrotation Zrotation
									JOINT RightHandRing2
									{
										OFFSET -6.408615 0.000000 0.000000
										CHANNELS 3 Xrotation Yrotation Zrotation
										JOINT RightHandRing3
										{
											OFFSET -6.150223 0.000000 0.000000
											CHANNELS 3 Xrotation Yrotation Zrotation
											JOINT RightHandRing4
											{
												OFFSET -6.145386 0.000000 0.000000
												CHANNELS 3 Xrotation Yrotation Zrotation
												End Site
												{
													OFFSET 3.671402 4.923981 -0.202372
												}
											}
										}
									}
								}
								JOINT RightHandPinky1
								{
									OFFSET -18.920792 -0.453171 -11.426712
									CHANNELS 3 Xrotation Yrotation Zrotation
									JOINT RightHandPinky2
									{
										OFFSET -4.919586 0.000000 0.000000
										CHANNELS 3 Xrotation Yrotation Zrotation
										JOINT RightHandPinky3
										{
											OFFSET -5.233047 0.000000 0.000000
											CHANNELS 3 Xrotation Yrotation Zrotation
											JOINT RightHandPinky4
											{
												OFFSET -5.571716 0.000000 0.000000
												CHANNELS 3 Xrotation Yrotation Zrotation
												End Site
												{
													OFFSET 3.459808 4.342407 -0.466164
												}
											}
										}
									}
								}
							}
						}
					}
				}
			}
		}
	}
	JOINT LeftUpLeg
	{
		OFFSET 19.899099 -7.885101 -3.429500
		CHANNELS 3 Xrotation Yrotation Zrotation
		JOINT LeftLeg
		{
			OFFSET 1.745560 -36.997807 10.304700
			CHANNELS 3 Xrotation Yrotation Zrotation
			JOINT LeftFoot
			{
				OFFSET -1.745558 -29.803308 -13.615400
				CHANNELS 3 Xrotation Yrotation Zrotation
				JOINT LeftToeBase
				{
					OFFSET 1.181900 -18.539904 15.226099
					CHANNELS 3 Xrotation Yrotation Zrotation
					JOINT LeftToe_End
					{
						OFFSET -0.863701 1.402801 16.534700
						CHANNELS 3 Xrotation Yrotation Zrotation
						End Site
						{
							OFFSET 0.000000 16.616566 0.000000
						}
					}
				}
			}
		}
	}
	JOINT RightUpLeg
	{
		OFFSET -19.899099 -7.885101 -3.429500
		CHANNELS 3 Xrotation Yrotation Zrotation
		JOINT RightLeg
		{
			OFFSET -1.745560 -36.997807 10.304700
			CHANNELS 3 Xrotation Yrotation Zrotation
			JOINT RightFoot
			{
				OFFSET 1.745558 -29.803308 -13.615400
				CHANNELS 3 Xrotation Yrotation Zrotation
				JOINT RightToeBase
				{
					OFFSET -1.181900 -18.539904 15.226099
					CHANNELS 3 Xrotation Yrotation Zrotation
					JOINT RightToe_End
					{
						OFFSET 0.863701 1.402801 16.534700
						CHANNELS 3 Xrotation Yrotation Zrotation
						End Site
						{
							OFFSET 0.000000 16.616566 0.000000
						}
					}
				}
			}
		}
	}
}
MOTION
Frames: 4
Frame Time: 0.033333
-25.310806 76.841278 24.391718 -191.899957 -194.467794 -172.285101 -1.205261 16.570006 2.361419 -0.077621 9.651373 -0.068033 -0.046989 9.653777 0.029355 6.662396 -6.066746 -2.833308 -12.142242 -32.560973 -0.916006 0.000000 0.000000 -0.000000 -0.108477 10.881086 -4.105898 -18.063243 23.834544 -22.275762 114.957999 -179.999991 179.999991 -6.184811 32.816617 13.189046 2.333994 -4.852044 -3.963502 13.533783 36.265890 -6.789658 18.237351 69.607619 3.188455 0.000000 -0.000000 -0.000001 2.878038 7.353378 -58.659693 3.100882 5.166417 -61.922256 2.817848 5.005801 -58.730570 0.000000 0.000000 0.000001 3.051705 7.454257 -60.629731 5.249934 5.820202 -84.092838 2.817847 5.005784 -58.730522 -0.000001 0.000000 0.000003 2.878036 7.353394 -58.659686 6.420562 5.823380 -95.595239 1.278808 3.654821 -38.558754 0.000002 -0.000001 0.000006 2.878037 7.353371 -58.659679 6.385710 5.826670 -95.251872 2.817851 5.005782 -58.730550 -0.000003 0.000003 0.000002 0.407635 17.800994 11.099327 -2.214591 18.429940 55.559108 152.050338 157.617953 -159.825197 -4.661854 -0.036905 12.329760 -3.271361 4.262310 2.745013 12.885607 -25.212653 -0.060293 7.487503 -26.561175 25.320012 -0.000000 0.000000 0.000002 -0.582412 -4.466620 63.279681 3.565245 -4.527631 76.425555 1.178652 -3.098514 41.644432 -0.000001 -0.000001 -0.000001 -0.274335 -5.397836 69.558086 4.568773 -4.656330 88.911209 1.690704 -3.591789 50.403152 -0.000002 0.000000 -0.000008 -0.459413 -5.589614 73.199370 4.564212 -4.656230 88.854935 1.698910 -3.598540 50.534002 -0.000000 -0.000000 -0.000005 2.345524 -7.069267 66.443418 4.077615 -4.621028 82.843440 2.400009 -4.074672 60.982565 -0.000000 -0.000001 -0.000001 -40.759393 0.310962 -19.145078 29.668901 -6.098386 -5.106795 35.206350 -29.114801 13.871912 -8.470326 -0.000010 -0.000001 0.000000 0.000000 -0.000000 32.046138 -14.780929 6.416652 41.158498 -7.611886 -4.352936 -10.305085 -1.192901 3.882867 -53.443966 -2.502571 1.911006 -0.000000 0.000000 0.000000 
-25.706419 74.798943 23.247923 -192.225770 -196.591696 -172.709079 -1.284987 17.434411 1.456814 -0.267106 9.966510 -0.508814 -0.247207 9.972255 -0.435814 6.811931 -6.449080 -2.910419 -11.180983 -34.840747 -0.203179 0.000001 0.000000 -0.000001 0.157985 11.581556 -6.394483 -14.901178 24.993067 -26.550436 119.693642 -179.956483 180.017709 -5.409430 27.026278 11.614523 2.333995 -4.852046 -3.963505 13.533798 36.265890 -6.789679 18.237389 69.607633 3.188417 -0.000000 0.000001 0.000000 2.878034 7.353374 -58.659700 3.100871 5.166416 -61.922235 2.817840 5.005800 -58.730556 -0.000003 -0.000000 -0.000001 3.051705 7.454258 -60.629718 5.249930 5.820194 -84.092845 2.817852 5.005785 -58.730550 0.000002 -0.000001 0.000005 2.878036 7.353386 -58.659686 6.420551 5.823379 -95.595218 1.278805 3.654834 -38.558788 -0.000000 -0.000001 0.000004 2.878040 7.353371 -58.659693 6.385705 5.826670 -95.251837 2.817854 5.005776 -58.730529 -0.000001 0.000003 0.000000 0.448886 17.317700 10.813733 -1.957701 17.090352 58.176669 151.278622 160.474994 -160.327052 -4.666564 -0.067681 12.749970 -3.271369 4.262316 2.745009 12.885616 -25.212653 -0.060281 7.487505 -26.561176 25.320039 0.000000 0.000000 0.000002 -0.582433 -4.466597 63.279674 3.565244 -4.527629 76.425541 1.178625 -3.098519 41.644432 -0.000000 0.000002 0.000002 -0.274317 -5.397824 69.558093 4.568768 -4.656318 88.911202 1.690714 -3.591780 50.403156 -0.000002 -0.000001 -0.000001 -0.459409 -5.589611 73.199390 4.564224 -4.656226 88.854942 1.698928 -3.598533 50.534015 0.000001 0.000001 -0.000003 2.345508 -7.069270 66.443418 4.077603 -4.621052 82.843412 2.400000 -4.074683 60.982572 0.000001 -0.000001 -0.000001 -43.756760 1.233839 -19.254148 33.099968 -5.794286 -4.862175 35.361112 -28.336677 14.407903 -8.746708 -0.000003 -0.000003 0.000000 0.000000 0.000000 35.415760 -13.293502 9.476822 40.506905 -6.975163 -3.428532 -17.187993 -4.873994 4.160487 -50.201334 -1.776131 1.505651 -0.000000 -0.000000 0.000000 
-26.043751 72.637024 22.144960 -192.315014 -197.920099 -173.100968 -1.355377 18.388606 0.475477 -0.474659 10.273300 -1.068455 -0.468217 10.278046 -1.034138 6.997930 -6.735732 -2.883662 -9.791822 -36.528699 0.629462 -0.000002 -0.000001 -0.000000 0.547045 11.705826 -9.362440 -12.713452 26.060068 -30.041600 123.560499 -178.980340 180.548292 -5.262521 22.034709 11.265977 2.333990 -4.852046 -3.963490 13.533804 36.265893 -6.789668 18.237353 69.607626 3.188458 0.000000 0.000001 0.000000 2.878041 7.353382 -58.659659 3.100882 5.166415 -61.922249 2.817849 5.005801 -58.730563 -0.000002 -0.000000 -0.000000 3.051701 7.454257 -60.629718 5.249927 5.820199 -84.092831 2.817851 5.005787 -58.730556 -0.000000 0.000000 0.000003 2.878035 7.353390 -58.659666 6.420561 5.823375 -95.595252 1.278800 3.654831 -38.558757 0.000001 -0.000001 0.000006 2.878043 7.353369 -58.659673 6.385709 5.826666 -95.251851 2.817847 5.005779 -58.730550 0.000000 0.000003 0.000002 0.468365 16.995964 10.678633 -2.683465 15.870631 61.133403 150.406448 163.279893 -161.117961 -4.643341 -0.288721 12.781657 -3.271347 4.262310 2.745008 12.885579 -25.212648 -0.060286 7.487514 -26.561166 25.320049 0.000000 0.000000 -0.000000 -0.582405 -4.466607 63.279674 3.565235 -4.527613 76.425548 1.178651 -3.098514 41.644432 -0.000001 -0.000001 -0.000001 -0.274306 -5.397827 69.558114 4.568767 -4.656328 88.911202 1.690718 -3.591790 50.403145 0.000002 0.000000 -0.000008 -0.459405 -5.589602 73.199397 4.564221 -4.656250 88.854921 1.698937 -3.598530 50.534015 -0.000002 -0.000001 -0.000003 2.345519 -7.069269 66.443431 4.077610 -4.621062 82.843426 2.400016 -4.074664 60.982565 0.000004 -0.000001 -0.000001 -47.043608 1.997086 -19.350682 36.354112 -5.213582 -4.469381 35.331773 -28.169471 14.483329 -9.110789 0.000002 -0.000006 0.000000 -0.000003 -0.000000 38.932307 -11.123839 12.712195 39.956791 -6.618116 -2.764914 -27.061375 -9.159024 2.718418 -42.688839 -1.687179 1.836436 -0.000000 -0.000000 -0.000000 
-26.351143 70.470947 21.161745 -192.394258 -198.426243 -173.351116 -1.310057 19.333067 -0.598722 -0.624280 10.497644 -1.812031 -0.628014 10.492103 -1.836910 7.217258 -6.865990 -2.679283 -7.947730 -37.442435 2.041097 -0.000001 0.000000 0.000000 0.972201 11.155941 -12.686163 -11.386424 27.186272 -32.773881 126.534336 -178.162780 181.277660 -5.303139 18.406165 11.222916 2.334005 -4.852036 -3.963493 13.533802 36.265890 -6.789661 18.237399 69.607646 3.188412 0.000000 -0.000000 0.000001 2.878034 7.353378 -58.659659 3.100877 5.166408 -61.922256 2.817839 5.005804 -58.730550 -0.000003 0.000001 -0.000000 3.051702 7.454258 -60.629725 5.249929 5.820204 -84.092818 2.817850 5.005790 -58.730550 -0.000001 -0.000001 0.000002 2.878039 7.353400 -58.659659 6.420558 5.823371 -95.595259 1.278804 3.654829 -38.558761 -0.000002 -0.000003 0.000008 2.878044 7.353387 -58.659659 6.385716 5.826666 -95.251865 2.817845 5.005784 -58.730550 -0.000003 -0.000002 -0.000004 0.478314 16.925832 10.600507 -4.280790 15.375859 64.135094 149.709345 166.211629 -162.208155 -4.624744 -0.477608 12.375432 -3.271368 4.262302 2.745005 12.885621 -25.212638 -0.060289 7.487498 -26.561168 25.320046 -0.000000 -0.000001 0.000001 -0.582426 -4.466605 63.279674 3.565236 -4.527635 76.425548 1.178651 -3.098520 41.644445 -0.000000 0.000001 -0.000003 -0.274331 -5.397828 69.558086 4.568771 -4.656331 88.911195 1.690716 -3.591782 50.403149 0.000002 0.000001 -0.000004 -0.459396 -5.589618 73.199411 4.564227 -4.656226 88.854942 1.698925 -3.598531 50.534015 -0.000001 0.000004 -0.000005 2.345513 -7.069271 66.443418 4.077626 -4.621043 82.843440 2.399990 -4.074671 60.982572 0.000000 0.000001 -0.000001 -50.285444 2.804710 -19.307423 39.394363 -4.403275 -4.105062 35.652799 -28.399667 14.540448 -9.510439 0.000011 0.000001 -0.000000 -0.000001 0.000000 42.265764 -8.375087 16.126644 38.643967 -6.930868 -2.827693 -37.190144 -12.032783 -0.818505 -34.011726 -1.689076 2.503248 0.000000 -0.000000 0.000000 
